<svg xmlns="http://www.w3.org/2000/svg" viewBox="0 0 60 30">
  <clipPath id="c"><circle cx="30" cy="15" r="15"/></clipPath>
  <g clip-path="url(#c)">
    <rect fill="#B22234" width="60" height="30"/>
    <rect fill="#fff" y="2.31" width="60" height="2.31"/>
    <rect fill="#fff" y="6.92" width="60" height="2.31"/>
    <rect fill="#fff" y="11.54" width="60" height="2.31"/>
    <rect fill="#fff" y="16.15" width="60" height="2.31"/>
    <rect fill="#fff" y="20.77" width="60" height="2.31"/>
    <rect fill="#fff" y="25.38" width="60" height="2.31"/>
    <rect fill="#3C3B6E" width="24" height="16.15"/>
    <g fill="#fff" font-size="1.8">
      <text x="3" y="3.5">★</text><text x="6" y="3.5">★</text><text x="9" y="3.5">★</text><text x="12" y="3.5">★</text><text x="15" y="3.5">★</text><text x="18" y="3.5">★</text>
      <text x="4.5" y="5.5">★</text><text x="7.5" y="5.5">★</text><text x="10.5" y="5.5">★</text><text x="13.5" y="5.5">★</text><text x="16.5" y="5.5">★</text>
      <text x="3" y="7.5">★</text><text x="6" y="7.5">★</text><text x="9" y="7.5">★</text><text x="12" y="7.5">★</text><text x="15" y="7.5">★</text><text x="18" y="7.5">★</text>
      <text x="4.5" y="9.5">★</text><text x="7.5" y="9.5">★</text><text x="10.5" y="9.5">★</text><text x="13.5" y="9.5">★</text><text x="16.5" y="9.5">★</text>
      <text x="3" y="11.5">★</text><text x="6" y="11.5">★</text><text x="9" y="11.5">★</text><text x="12" y="11.5">★</text><text x="15" y="11.5">★</text><text x="18" y="11.5">★</text>
      <text x="4.5" y="13.5">★</text><text x="7.5" y="13.5">★</text><text x="10.5" y="13.5">★</text><text x="13.5" y="13.5">★</text><text x="16.5" y="13.5">★</text>
    </g>
  </g>
</svg>
